<mxfile host="app.diagrams.net" modified="2024-04-04T18:39:05.246Z" agent="Mozilla/5.0 (Windows NT 10.0; Win64; x64) AppleWebKit/537.36 (KHTML, like Gecko) Chrome/123.0.0.0 Safari/537.36" etag="n7SV5yCIx2ZDKkpLCbji" version="24.2.2" type="github">
  <diagram id="C5RBs43oDa-KdzZeNtuy" name="Page-1">
    <mxGraphModel dx="1877" dy="530" grid="1" gridSize="10" guides="1" tooltips="1" connect="1" arrows="1" fold="1" page="1" pageScale="1" pageWidth="827" pageHeight="1169" math="0" shadow="0">
      <root>
        <mxCell id="WIyWlLk6GJQsqaUBKTNV-0" />
        <mxCell id="WIyWlLk6GJQsqaUBKTNV-1" parent="WIyWlLk6GJQsqaUBKTNV-0" />
        <mxCell id="E6fifJwDgSD8AQbSED46-12" style="edgeStyle=orthogonalEdgeStyle;rounded=0;orthogonalLoop=1;jettySize=auto;html=1;exitX=1;exitY=0.5;exitDx=0;exitDy=0;entryX=0.5;entryY=1;entryDx=0;entryDy=0;endArrow=none;endFill=0;" parent="WIyWlLk6GJQsqaUBKTNV-1" source="E6fifJwDgSD8AQbSED46-1" target="E6fifJwDgSD8AQbSED46-9" edge="1">
          <mxGeometry relative="1" as="geometry">
            <Array as="points">
              <mxPoint x="800" y="230" />
              <mxPoint x="720" y="230" />
              <mxPoint x="720" y="160" />
              <mxPoint x="630" y="160" />
            </Array>
          </mxGeometry>
        </mxCell>
        <mxCell id="E6fifJwDgSD8AQbSED46-47" style="rounded=0;orthogonalLoop=1;jettySize=auto;html=1;exitX=0.5;exitY=1;exitDx=0;exitDy=0;entryX=0.5;entryY=0;entryDx=0;entryDy=0;dashed=1;" parent="WIyWlLk6GJQsqaUBKTNV-1" source="E6fifJwDgSD8AQbSED46-1" target="E6fifJwDgSD8AQbSED46-13" edge="1">
          <mxGeometry relative="1" as="geometry" />
        </mxCell>
        <mxCell id="E6fifJwDgSD8AQbSED46-1" value="&lt;p style=&quot;margin:0px;margin-top:4px;text-align:center;&quot;&gt;&lt;b&gt;用户管理控制器类&lt;/b&gt;&lt;/p&gt;&lt;hr size=&quot;1&quot; style=&quot;border-style:solid;&quot;&gt;&lt;div style=&quot;height:2px;&quot;&gt;&lt;/div&gt;" style="verticalAlign=top;align=left;overflow=fill;html=1;whiteSpace=wrap;" parent="WIyWlLk6GJQsqaUBKTNV-1" vertex="1">
          <mxGeometry x="660" y="190" width="140" height="60" as="geometry" />
        </mxCell>
        <mxCell id="E6fifJwDgSD8AQbSED46-45" style="edgeStyle=orthogonalEdgeStyle;rounded=0;orthogonalLoop=1;jettySize=auto;html=1;exitX=0.5;exitY=0;exitDx=0;exitDy=0;endArrow=block;endFill=0;" parent="WIyWlLk6GJQsqaUBKTNV-1" source="E6fifJwDgSD8AQbSED46-2" edge="1">
          <mxGeometry relative="1" as="geometry">
            <mxPoint x="670" y="360" as="targetPoint" />
          </mxGeometry>
        </mxCell>
        <mxCell id="E6fifJwDgSD8AQbSED46-2" value="&lt;p style=&quot;margin:0px;margin-top:4px;text-align:center;&quot;&gt;&lt;b&gt;管理员用户&lt;/b&gt;&lt;/p&gt;&lt;hr size=&quot;1&quot; style=&quot;border-style:solid;&quot;&gt;&lt;div style=&quot;height:2px;&quot;&gt;&lt;/div&gt;" style="verticalAlign=top;align=left;overflow=fill;html=1;whiteSpace=wrap;fillColor=#d5e8d4;strokeColor=#82b366;" parent="WIyWlLk6GJQsqaUBKTNV-1" vertex="1">
          <mxGeometry x="740" y="450" width="140" height="60" as="geometry" />
        </mxCell>
        <mxCell id="E6fifJwDgSD8AQbSED46-46" style="edgeStyle=orthogonalEdgeStyle;rounded=0;orthogonalLoop=1;jettySize=auto;html=1;exitX=0;exitY=0.5;exitDx=0;exitDy=0;endArrow=diamondThin;endFill=0;" parent="WIyWlLk6GJQsqaUBKTNV-1" source="E6fifJwDgSD8AQbSED46-3" target="E6fifJwDgSD8AQbSED46-13" edge="1">
          <mxGeometry relative="1" as="geometry" />
        </mxCell>
        <mxCell id="E6fifJwDgSD8AQbSED46-3" value="&lt;p style=&quot;margin:0px;margin-top:4px;text-align:center;&quot;&gt;&lt;b&gt;角色&lt;/b&gt;&lt;/p&gt;&lt;hr size=&quot;1&quot; style=&quot;border-style:solid;&quot;&gt;&lt;div style=&quot;height:2px;&quot;&gt;&lt;/div&gt;" style="verticalAlign=top;align=left;overflow=fill;html=1;whiteSpace=wrap;fillColor=#e1d5e7;strokeColor=#9673a6;" parent="WIyWlLk6GJQsqaUBKTNV-1" vertex="1">
          <mxGeometry x="890" y="300" width="140" height="60" as="geometry" />
        </mxCell>
        <mxCell id="E6fifJwDgSD8AQbSED46-4" value="&lt;p style=&quot;margin:0px;margin-top:4px;text-align:center;&quot;&gt;&lt;b&gt;资源&lt;/b&gt;&lt;/p&gt;&lt;hr size=&quot;1&quot; style=&quot;border-style:solid;&quot;&gt;&lt;div style=&quot;height:2px;&quot;&gt;&lt;/div&gt;" style="verticalAlign=top;align=left;overflow=fill;html=1;whiteSpace=wrap;fillColor=#d5e8d4;strokeColor=#82b366;" parent="WIyWlLk6GJQsqaUBKTNV-1" vertex="1">
          <mxGeometry x="274" y="400" width="140" height="60" as="geometry" />
        </mxCell>
        <mxCell id="E6fifJwDgSD8AQbSED46-22" style="edgeStyle=orthogonalEdgeStyle;rounded=0;orthogonalLoop=1;jettySize=auto;html=1;exitX=0.5;exitY=0;exitDx=0;exitDy=0;entryX=0.5;entryY=1;entryDx=0;entryDy=0;endArrow=none;endFill=0;" parent="WIyWlLk6GJQsqaUBKTNV-1" source="E6fifJwDgSD8AQbSED46-5" target="E6fifJwDgSD8AQbSED46-10" edge="1">
          <mxGeometry relative="1" as="geometry" />
        </mxCell>
        <mxCell id="E6fifJwDgSD8AQbSED46-33" style="rounded=0;orthogonalLoop=1;jettySize=auto;html=1;exitX=0.5;exitY=1;exitDx=0;exitDy=0;entryX=0.5;entryY=0;entryDx=0;entryDy=0;dashed=1;" parent="WIyWlLk6GJQsqaUBKTNV-1" source="E6fifJwDgSD8AQbSED46-5" target="E6fifJwDgSD8AQbSED46-20" edge="1">
          <mxGeometry relative="1" as="geometry" />
        </mxCell>
        <mxCell id="E6fifJwDgSD8AQbSED46-5" value="&lt;p style=&quot;margin:0px;margin-top:4px;text-align:center;&quot;&gt;&lt;b&gt;订单控制器类&lt;/b&gt;&lt;/p&gt;&lt;hr size=&quot;1&quot; style=&quot;border-style:solid;&quot;&gt;&lt;div style=&quot;height:2px;&quot;&gt;&lt;/div&gt;" style="verticalAlign=top;align=left;overflow=fill;html=1;whiteSpace=wrap;" parent="WIyWlLk6GJQsqaUBKTNV-1" vertex="1">
          <mxGeometry x="-310" y="180" width="140" height="70" as="geometry" />
        </mxCell>
        <mxCell id="E6fifJwDgSD8AQbSED46-7" value="&lt;p style=&quot;margin:0px;margin-top:4px;text-align:center;&quot;&gt;&lt;b&gt;购物车&lt;/b&gt;&lt;/p&gt;&lt;hr size=&quot;1&quot; style=&quot;border-style:solid;&quot;&gt;&lt;div style=&quot;height:2px;&quot;&gt;&lt;/div&gt;" style="verticalAlign=top;align=left;overflow=fill;html=1;whiteSpace=wrap;fillColor=#d5e8d4;strokeColor=#82b366;" parent="WIyWlLk6GJQsqaUBKTNV-1" vertex="1">
          <mxGeometry x="-220" y="400" width="140" height="60" as="geometry" />
        </mxCell>
        <mxCell id="E6fifJwDgSD8AQbSED46-8" value="&lt;p style=&quot;margin:0px;margin-top:4px;text-align:center;&quot;&gt;&lt;b&gt;交流信息&lt;/b&gt;&lt;/p&gt;&lt;hr size=&quot;1&quot; style=&quot;border-style:solid;&quot;&gt;&lt;div style=&quot;height:2px;&quot;&gt;&lt;/div&gt;" style="verticalAlign=top;align=left;overflow=fill;html=1;whiteSpace=wrap;fillColor=#d5e8d4;strokeColor=#82b366;" parent="WIyWlLk6GJQsqaUBKTNV-1" vertex="1">
          <mxGeometry x="20" y="400" width="140" height="60" as="geometry" />
        </mxCell>
        <mxCell id="E6fifJwDgSD8AQbSED46-9" value="&lt;p style=&quot;margin:0px;margin-top:4px;text-align:center;&quot;&gt;&lt;b&gt;后台管理界面类&lt;/b&gt;&lt;/p&gt;&lt;hr size=&quot;1&quot; style=&quot;border-style:solid;&quot;&gt;&lt;div style=&quot;height:2px;&quot;&gt;&lt;/div&gt;" style="verticalAlign=top;align=left;overflow=fill;html=1;whiteSpace=wrap;" parent="WIyWlLk6GJQsqaUBKTNV-1" vertex="1">
          <mxGeometry x="560" y="40" width="140" height="60" as="geometry" />
        </mxCell>
        <mxCell id="E6fifJwDgSD8AQbSED46-10" value="&lt;p style=&quot;margin:0px;margin-top:4px;text-align:center;&quot;&gt;&lt;b&gt;客户端界面类&lt;/b&gt;&lt;/p&gt;&lt;hr size=&quot;1&quot; style=&quot;border-style:solid;&quot;&gt;&lt;div style=&quot;height:2px;&quot;&gt;&lt;/div&gt;" style="verticalAlign=top;align=left;overflow=fill;html=1;whiteSpace=wrap;" parent="WIyWlLk6GJQsqaUBKTNV-1" vertex="1">
          <mxGeometry x="-20" y="40" width="140" height="60" as="geometry" />
        </mxCell>
        <mxCell id="E6fifJwDgSD8AQbSED46-13" value="&lt;p style=&quot;margin:0px;margin-top:4px;text-align:center;&quot;&gt;&lt;b&gt;用户基类&lt;/b&gt;&lt;/p&gt;&lt;hr size=&quot;1&quot; style=&quot;border-style:solid;&quot;&gt;&lt;div style=&quot;height:2px;&quot;&gt;&lt;/div&gt;" style="verticalAlign=top;align=left;overflow=fill;html=1;whiteSpace=wrap;fillColor=#d5e8d4;strokeColor=#82b366;" parent="WIyWlLk6GJQsqaUBKTNV-1" vertex="1">
          <mxGeometry x="600" y="300" width="140" height="60" as="geometry" />
        </mxCell>
        <mxCell id="E6fifJwDgSD8AQbSED46-44" style="edgeStyle=orthogonalEdgeStyle;rounded=0;orthogonalLoop=1;jettySize=auto;html=1;exitX=0.5;exitY=0;exitDx=0;exitDy=0;entryX=0.5;entryY=1;entryDx=0;entryDy=0;endArrow=block;endFill=0;" parent="WIyWlLk6GJQsqaUBKTNV-1" source="E6fifJwDgSD8AQbSED46-15" target="E6fifJwDgSD8AQbSED46-13" edge="1">
          <mxGeometry relative="1" as="geometry" />
        </mxCell>
        <mxCell id="E6fifJwDgSD8AQbSED46-50" style="edgeStyle=orthogonalEdgeStyle;rounded=0;orthogonalLoop=1;jettySize=auto;html=1;exitX=0;exitY=0.5;exitDx=0;exitDy=0;entryX=0.5;entryY=1;entryDx=0;entryDy=0;endArrow=diamondThin;endFill=0;" parent="WIyWlLk6GJQsqaUBKTNV-1" source="E6fifJwDgSD8AQbSED46-15" target="E6fifJwDgSD8AQbSED46-20" edge="1">
          <mxGeometry relative="1" as="geometry" />
        </mxCell>
        <mxCell id="E6fifJwDgSD8AQbSED46-51" style="edgeStyle=orthogonalEdgeStyle;rounded=0;orthogonalLoop=1;jettySize=auto;html=1;exitX=0;exitY=0.5;exitDx=0;exitDy=0;endArrow=diamond;endFill=0;" parent="WIyWlLk6GJQsqaUBKTNV-1" source="E6fifJwDgSD8AQbSED46-15" target="E6fifJwDgSD8AQbSED46-7" edge="1">
          <mxGeometry relative="1" as="geometry" />
        </mxCell>
        <mxCell id="E6fifJwDgSD8AQbSED46-52" style="edgeStyle=orthogonalEdgeStyle;rounded=0;orthogonalLoop=1;jettySize=auto;html=1;exitX=0;exitY=0.5;exitDx=0;exitDy=0;entryX=0.5;entryY=1;entryDx=0;entryDy=0;endArrow=diamond;endFill=0;" parent="WIyWlLk6GJQsqaUBKTNV-1" source="E6fifJwDgSD8AQbSED46-15" target="E6fifJwDgSD8AQbSED46-8" edge="1">
          <mxGeometry relative="1" as="geometry" />
        </mxCell>
        <mxCell id="E6fifJwDgSD8AQbSED46-53" style="edgeStyle=orthogonalEdgeStyle;rounded=0;orthogonalLoop=1;jettySize=auto;html=1;exitX=0;exitY=0.5;exitDx=0;exitDy=0;entryX=1;entryY=0.75;entryDx=0;entryDy=0;endArrow=diamondThin;endFill=0;" parent="WIyWlLk6GJQsqaUBKTNV-1" source="E6fifJwDgSD8AQbSED46-15" target="E6fifJwDgSD8AQbSED46-4" edge="1">
          <mxGeometry relative="1" as="geometry" />
        </mxCell>
        <mxCell id="E6fifJwDgSD8AQbSED46-15" value="&lt;p style=&quot;margin:0px;margin-top:4px;text-align:center;&quot;&gt;&lt;b&gt;普通用户&lt;/b&gt;&lt;/p&gt;&lt;hr size=&quot;1&quot; style=&quot;border-style:solid;&quot;&gt;&lt;div style=&quot;height:2px;&quot;&gt;&lt;/div&gt;" style="verticalAlign=top;align=left;overflow=fill;html=1;whiteSpace=wrap;fillColor=#d5e8d4;strokeColor=#82b366;" parent="WIyWlLk6GJQsqaUBKTNV-1" vertex="1">
          <mxGeometry x="510" y="640" width="140" height="60" as="geometry" />
        </mxCell>
        <mxCell id="E6fifJwDgSD8AQbSED46-17" style="edgeStyle=orthogonalEdgeStyle;rounded=0;orthogonalLoop=1;jettySize=auto;html=1;entryX=0.5;entryY=1;entryDx=0;entryDy=0;endArrow=none;endFill=0;" parent="WIyWlLk6GJQsqaUBKTNV-1" source="E6fifJwDgSD8AQbSED46-16" target="E6fifJwDgSD8AQbSED46-9" edge="1">
          <mxGeometry relative="1" as="geometry">
            <Array as="points">
              <mxPoint x="560" y="160" />
              <mxPoint x="630" y="160" />
            </Array>
          </mxGeometry>
        </mxCell>
        <mxCell id="E6fifJwDgSD8AQbSED46-43" style="rounded=0;orthogonalLoop=1;jettySize=auto;html=1;exitX=0.25;exitY=1;exitDx=0;exitDy=0;entryX=0.5;entryY=0;entryDx=0;entryDy=0;dashed=1;" parent="WIyWlLk6GJQsqaUBKTNV-1" source="E6fifJwDgSD8AQbSED46-16" target="E6fifJwDgSD8AQbSED46-4" edge="1">
          <mxGeometry relative="1" as="geometry" />
        </mxCell>
        <mxCell id="E6fifJwDgSD8AQbSED46-16" value="&lt;p style=&quot;margin:0px;margin-top:4px;text-align:center;&quot;&gt;&lt;b&gt;资源管理控制器类&lt;/b&gt;&lt;/p&gt;&lt;hr size=&quot;1&quot; style=&quot;border-style:solid;&quot;&gt;&lt;div style=&quot;height:2px;&quot;&gt;&lt;/div&gt;" style="verticalAlign=top;align=left;overflow=fill;html=1;whiteSpace=wrap;" parent="WIyWlLk6GJQsqaUBKTNV-1" vertex="1">
          <mxGeometry x="490" y="190" width="140" height="60" as="geometry" />
        </mxCell>
        <mxCell id="E6fifJwDgSD8AQbSED46-21" style="edgeStyle=orthogonalEdgeStyle;rounded=0;orthogonalLoop=1;jettySize=auto;html=1;exitX=0.5;exitY=0;exitDx=0;exitDy=0;endArrow=none;endFill=0;" parent="WIyWlLk6GJQsqaUBKTNV-1" source="E6fifJwDgSD8AQbSED46-19" target="E6fifJwDgSD8AQbSED46-10" edge="1">
          <mxGeometry relative="1" as="geometry" />
        </mxCell>
        <mxCell id="E6fifJwDgSD8AQbSED46-34" style="rounded=0;orthogonalLoop=1;jettySize=auto;html=1;exitX=0.5;exitY=1;exitDx=0;exitDy=0;entryX=0.5;entryY=0;entryDx=0;entryDy=0;dashed=1;" parent="WIyWlLk6GJQsqaUBKTNV-1" source="E6fifJwDgSD8AQbSED46-19" target="E6fifJwDgSD8AQbSED46-7" edge="1">
          <mxGeometry relative="1" as="geometry" />
        </mxCell>
        <mxCell id="E6fifJwDgSD8AQbSED46-19" value="&lt;p style=&quot;margin:0px;margin-top:4px;text-align:center;&quot;&gt;&lt;b&gt;购物车控制器类&lt;/b&gt;&lt;/p&gt;&lt;hr size=&quot;1&quot; style=&quot;border-style:solid;&quot;&gt;&lt;div style=&quot;height:2px;&quot;&gt;&lt;/div&gt;" style="verticalAlign=top;align=left;overflow=fill;html=1;whiteSpace=wrap;" parent="WIyWlLk6GJQsqaUBKTNV-1" vertex="1">
          <mxGeometry x="-100" y="180" width="140" height="60" as="geometry" />
        </mxCell>
        <mxCell id="E6fifJwDgSD8AQbSED46-20" value="&lt;p style=&quot;margin:0px;margin-top:4px;text-align:center;&quot;&gt;&lt;b&gt;订单&lt;/b&gt;&lt;/p&gt;&lt;hr size=&quot;1&quot; style=&quot;border-style:solid;&quot;&gt;&lt;div style=&quot;height:2px;&quot;&gt;&lt;/div&gt;" style="verticalAlign=top;align=left;overflow=fill;html=1;whiteSpace=wrap;fillColor=#d5e8d4;strokeColor=#82b366;" parent="WIyWlLk6GJQsqaUBKTNV-1" vertex="1">
          <mxGeometry x="-450" y="400" width="140" height="60" as="geometry" />
        </mxCell>
        <mxCell id="E6fifJwDgSD8AQbSED46-24" style="edgeStyle=orthogonalEdgeStyle;rounded=0;orthogonalLoop=1;jettySize=auto;html=1;exitX=0.5;exitY=0;exitDx=0;exitDy=0;entryX=0.5;entryY=1;entryDx=0;entryDy=0;endArrow=none;endFill=0;" parent="WIyWlLk6GJQsqaUBKTNV-1" source="E6fifJwDgSD8AQbSED46-23" target="E6fifJwDgSD8AQbSED46-10" edge="1">
          <mxGeometry relative="1" as="geometry" />
        </mxCell>
        <mxCell id="E6fifJwDgSD8AQbSED46-35" style="rounded=0;orthogonalLoop=1;jettySize=auto;html=1;exitX=0.5;exitY=1;exitDx=0;exitDy=0;entryX=0.5;entryY=0;entryDx=0;entryDy=0;dashed=1;" parent="WIyWlLk6GJQsqaUBKTNV-1" source="E6fifJwDgSD8AQbSED46-23" target="E6fifJwDgSD8AQbSED46-4" edge="1">
          <mxGeometry relative="1" as="geometry" />
        </mxCell>
        <mxCell id="E6fifJwDgSD8AQbSED46-23" value="&lt;p style=&quot;margin:0px;margin-top:4px;text-align:center;&quot;&gt;&lt;b&gt;资源控制器类&lt;/b&gt;&lt;/p&gt;&lt;hr size=&quot;1&quot; style=&quot;border-style:solid;&quot;&gt;&lt;div style=&quot;height:2px;&quot;&gt;&lt;/div&gt;" style="verticalAlign=top;align=left;overflow=fill;html=1;whiteSpace=wrap;" parent="WIyWlLk6GJQsqaUBKTNV-1" vertex="1">
          <mxGeometry x="90" y="180" width="140" height="60" as="geometry" />
        </mxCell>
        <mxCell id="E6fifJwDgSD8AQbSED46-26" style="edgeStyle=orthogonalEdgeStyle;rounded=0;orthogonalLoop=1;jettySize=auto;html=1;exitX=0.5;exitY=0;exitDx=0;exitDy=0;entryX=0.5;entryY=1;entryDx=0;entryDy=0;endArrow=none;endFill=0;" parent="WIyWlLk6GJQsqaUBKTNV-1" source="E6fifJwDgSD8AQbSED46-25" target="E6fifJwDgSD8AQbSED46-10" edge="1">
          <mxGeometry relative="1" as="geometry" />
        </mxCell>
        <mxCell id="E6fifJwDgSD8AQbSED46-42" style="rounded=0;orthogonalLoop=1;jettySize=auto;html=1;exitX=1;exitY=1;exitDx=0;exitDy=0;entryX=0.5;entryY=0;entryDx=0;entryDy=0;dashed=1;" parent="WIyWlLk6GJQsqaUBKTNV-1" source="E6fifJwDgSD8AQbSED46-25" target="E6fifJwDgSD8AQbSED46-15" edge="1">
          <mxGeometry relative="1" as="geometry" />
        </mxCell>
        <mxCell id="E6fifJwDgSD8AQbSED46-25" value="&lt;p style=&quot;margin:0px;margin-top:4px;text-align:center;&quot;&gt;&lt;b&gt;用户控制器类&lt;/b&gt;&lt;/p&gt;&lt;hr size=&quot;1&quot; style=&quot;border-style:solid;&quot;&gt;&lt;div style=&quot;height:2px;&quot;&gt;&lt;/div&gt;" style="verticalAlign=top;align=left;overflow=fill;html=1;whiteSpace=wrap;" parent="WIyWlLk6GJQsqaUBKTNV-1" vertex="1">
          <mxGeometry x="274" y="180" width="140" height="60" as="geometry" />
        </mxCell>
        <mxCell id="E6fifJwDgSD8AQbSED46-30" style="edgeStyle=orthogonalEdgeStyle;rounded=0;orthogonalLoop=1;jettySize=auto;html=1;exitX=0.5;exitY=0;exitDx=0;exitDy=0;entryX=0.5;entryY=1;entryDx=0;entryDy=0;endArrow=none;endFill=0;" parent="WIyWlLk6GJQsqaUBKTNV-1" source="E6fifJwDgSD8AQbSED46-27" target="E6fifJwDgSD8AQbSED46-10" edge="1">
          <mxGeometry relative="1" as="geometry" />
        </mxCell>
        <mxCell id="E6fifJwDgSD8AQbSED46-31" style="rounded=0;orthogonalLoop=1;jettySize=auto;html=1;exitX=0.5;exitY=1;exitDx=0;exitDy=0;entryX=0.5;entryY=0;entryDx=0;entryDy=0;endArrow=classic;endFill=1;dashed=1;" parent="WIyWlLk6GJQsqaUBKTNV-1" source="E6fifJwDgSD8AQbSED46-27" target="E6fifJwDgSD8AQbSED46-29" edge="1">
          <mxGeometry relative="1" as="geometry" />
        </mxCell>
        <mxCell id="E6fifJwDgSD8AQbSED46-27" value="&lt;p style=&quot;margin:0px;margin-top:4px;text-align:center;&quot;&gt;&lt;b&gt;版本管理控制器类&lt;/b&gt;&lt;/p&gt;&lt;hr size=&quot;1&quot; style=&quot;border-style:solid;&quot;&gt;&lt;div style=&quot;height:2px;&quot;&gt;&lt;/div&gt;" style="verticalAlign=top;align=left;overflow=fill;html=1;whiteSpace=wrap;" parent="WIyWlLk6GJQsqaUBKTNV-1" vertex="1">
          <mxGeometry x="-580" y="180" width="140" height="60" as="geometry" />
        </mxCell>
        <mxCell id="E6fifJwDgSD8AQbSED46-29" value="&lt;p style=&quot;margin:0px;margin-top:4px;text-align:center;&quot;&gt;&lt;b&gt;版本记录&lt;/b&gt;&lt;/p&gt;&lt;hr size=&quot;1&quot; style=&quot;border-style:solid;&quot;&gt;&lt;div style=&quot;height:2px;&quot;&gt;&lt;/div&gt;" style="verticalAlign=top;align=left;overflow=fill;html=1;whiteSpace=wrap;fillColor=#d5e8d4;strokeColor=#82b366;" parent="WIyWlLk6GJQsqaUBKTNV-1" vertex="1">
          <mxGeometry x="-680" y="400" width="140" height="60" as="geometry" />
        </mxCell>
        <mxCell id="E6fifJwDgSD8AQbSED46-40" style="edgeStyle=orthogonalEdgeStyle;rounded=0;orthogonalLoop=1;jettySize=auto;html=1;exitX=0.5;exitY=0;exitDx=0;exitDy=0;entryX=0.5;entryY=1;entryDx=0;entryDy=0;endArrow=none;endFill=0;" parent="WIyWlLk6GJQsqaUBKTNV-1" source="E6fifJwDgSD8AQbSED46-36" target="E6fifJwDgSD8AQbSED46-10" edge="1">
          <mxGeometry relative="1" as="geometry">
            <Array as="points">
              <mxPoint x="70" y="140" />
              <mxPoint x="50" y="140" />
            </Array>
          </mxGeometry>
        </mxCell>
        <mxCell id="E6fifJwDgSD8AQbSED46-41" style="rounded=0;orthogonalLoop=1;jettySize=auto;html=1;exitX=0.5;exitY=1;exitDx=0;exitDy=0;entryX=0.5;entryY=0;entryDx=0;entryDy=0;dashed=1;" parent="WIyWlLk6GJQsqaUBKTNV-1" source="E6fifJwDgSD8AQbSED46-36" target="E6fifJwDgSD8AQbSED46-8" edge="1">
          <mxGeometry relative="1" as="geometry" />
        </mxCell>
        <mxCell id="E6fifJwDgSD8AQbSED46-36" value="&lt;p style=&quot;margin:0px;margin-top:4px;text-align:center;&quot;&gt;&lt;b&gt;交流信息控制器&lt;/b&gt;&lt;/p&gt;&lt;hr size=&quot;1&quot; style=&quot;border-style:solid;&quot;&gt;&lt;div style=&quot;height:2px;&quot;&gt;&lt;/div&gt;" style="verticalAlign=top;align=left;overflow=fill;html=1;whiteSpace=wrap;" parent="WIyWlLk6GJQsqaUBKTNV-1" vertex="1">
          <mxGeometry y="290" width="140" height="60" as="geometry" />
        </mxCell>
        <mxCell id="E6fifJwDgSD8AQbSED46-49" style="edgeStyle=orthogonalEdgeStyle;rounded=0;orthogonalLoop=1;jettySize=auto;html=1;exitX=1;exitY=0.5;exitDx=0;exitDy=0;entryX=0;entryY=0.75;entryDx=0;entryDy=0;endArrow=diamond;endFill=0;" parent="WIyWlLk6GJQsqaUBKTNV-1" source="E6fifJwDgSD8AQbSED46-48" target="E6fifJwDgSD8AQbSED46-4" edge="1">
          <mxGeometry relative="1" as="geometry" />
        </mxCell>
        <mxCell id="E6fifJwDgSD8AQbSED46-48" value="&lt;p style=&quot;margin:0px;margin-top:4px;text-align:center;&quot;&gt;&lt;b&gt;资源类型&lt;/b&gt;&lt;/p&gt;&lt;hr size=&quot;1&quot; style=&quot;border-style:solid;&quot;&gt;&lt;div style=&quot;height:2px;&quot;&gt;&lt;/div&gt;" style="verticalAlign=top;align=left;overflow=fill;html=1;whiteSpace=wrap;fillColor=#e1d5e7;strokeColor=#9673a6;" parent="WIyWlLk6GJQsqaUBKTNV-1" vertex="1">
          <mxGeometry x="250" y="510" width="140" height="60" as="geometry" />
        </mxCell>
        <mxCell id="E6fifJwDgSD8AQbSED46-54" value="用户模块界面" style="shape=umlBoundary;whiteSpace=wrap;html=1;fillColor=#dae8fc;strokeColor=#6c8ebf;" parent="WIyWlLk6GJQsqaUBKTNV-1" vertex="1">
          <mxGeometry x="-270" y="840" width="100" height="80" as="geometry" />
        </mxCell>
        <mxCell id="E6fifJwDgSD8AQbSED46-55" value="用户" style="ellipse;shape=umlEntity;whiteSpace=wrap;html=1;fillColor=#d5e8d4;strokeColor=#82b366;" parent="WIyWlLk6GJQsqaUBKTNV-1" vertex="1">
          <mxGeometry x="150" y="840" width="80" height="80" as="geometry" />
        </mxCell>
        <mxCell id="E6fifJwDgSD8AQbSED46-58" style="edgeStyle=orthogonalEdgeStyle;rounded=0;orthogonalLoop=1;jettySize=auto;html=1;" parent="WIyWlLk6GJQsqaUBKTNV-1" source="E6fifJwDgSD8AQbSED46-56" target="E6fifJwDgSD8AQbSED46-55" edge="1">
          <mxGeometry relative="1" as="geometry" />
        </mxCell>
        <mxCell id="E6fifJwDgSD8AQbSED46-56" value="用户控制器" style="ellipse;shape=umlControl;whiteSpace=wrap;html=1;fillColor=#ffe6cc;strokeColor=#d79b00;" parent="WIyWlLk6GJQsqaUBKTNV-1" vertex="1">
          <mxGeometry x="-20" y="840" width="70" height="80" as="geometry" />
        </mxCell>
        <mxCell id="E6fifJwDgSD8AQbSED46-57" style="edgeStyle=orthogonalEdgeStyle;rounded=0;orthogonalLoop=1;jettySize=auto;html=1;entryX=-0.007;entryY=0.521;entryDx=0;entryDy=0;entryPerimeter=0;endArrow=none;endFill=0;" parent="WIyWlLk6GJQsqaUBKTNV-1" source="E6fifJwDgSD8AQbSED46-54" target="E6fifJwDgSD8AQbSED46-56" edge="1">
          <mxGeometry relative="1" as="geometry" />
        </mxCell>
        <mxCell id="E6fifJwDgSD8AQbSED46-59" value="资源模块界面" style="shape=umlBoundary;whiteSpace=wrap;html=1;fillColor=#dae8fc;strokeColor=#6c8ebf;" parent="WIyWlLk6GJQsqaUBKTNV-1" vertex="1">
          <mxGeometry x="-300" y="1169" width="100" height="80" as="geometry" />
        </mxCell>
        <mxCell id="E6fifJwDgSD8AQbSED46-60" value="资源" style="ellipse;shape=umlEntity;whiteSpace=wrap;html=1;fillColor=#d5e8d4;strokeColor=#82b366;" parent="WIyWlLk6GJQsqaUBKTNV-1" vertex="1">
          <mxGeometry x="194" y="1030" width="80" height="80" as="geometry" />
        </mxCell>
        <mxCell id="E6fifJwDgSD8AQbSED46-61" style="rounded=0;orthogonalLoop=1;jettySize=auto;html=1;" parent="WIyWlLk6GJQsqaUBKTNV-1" source="E6fifJwDgSD8AQbSED46-62" target="E6fifJwDgSD8AQbSED46-60" edge="1">
          <mxGeometry relative="1" as="geometry" />
        </mxCell>
        <mxCell id="E6fifJwDgSD8AQbSED46-62" value="资源控制器" style="ellipse;shape=umlControl;whiteSpace=wrap;html=1;fillColor=#ffe6cc;strokeColor=#d79b00;" parent="WIyWlLk6GJQsqaUBKTNV-1" vertex="1">
          <mxGeometry x="-40" y="1000" width="70" height="80" as="geometry" />
        </mxCell>
        <mxCell id="E6fifJwDgSD8AQbSED46-63" style="rounded=0;orthogonalLoop=1;jettySize=auto;html=1;entryX=-0.007;entryY=0.521;entryDx=0;entryDy=0;entryPerimeter=0;endArrow=none;endFill=0;" parent="WIyWlLk6GJQsqaUBKTNV-1" source="E6fifJwDgSD8AQbSED46-59" target="E6fifJwDgSD8AQbSED46-62" edge="1">
          <mxGeometry relative="1" as="geometry" />
        </mxCell>
        <mxCell id="E6fifJwDgSD8AQbSED46-67" style="rounded=0;orthogonalLoop=1;jettySize=auto;html=1;entryX=0;entryY=0.5;entryDx=0;entryDy=0;" parent="WIyWlLk6GJQsqaUBKTNV-1" source="E6fifJwDgSD8AQbSED46-64" target="E6fifJwDgSD8AQbSED46-65" edge="1">
          <mxGeometry relative="1" as="geometry" />
        </mxCell>
        <mxCell id="E6fifJwDgSD8AQbSED46-64" value="购物车控制器" style="ellipse;shape=umlControl;whiteSpace=wrap;html=1;fillColor=#ffe6cc;strokeColor=#d79b00;" parent="WIyWlLk6GJQsqaUBKTNV-1" vertex="1">
          <mxGeometry x="-30" y="1169" width="70" height="80" as="geometry" />
        </mxCell>
        <mxCell id="E6fifJwDgSD8AQbSED46-65" value="购物车" style="ellipse;shape=umlEntity;whiteSpace=wrap;html=1;fillColor=#d5e8d4;strokeColor=#82b366;" parent="WIyWlLk6GJQsqaUBKTNV-1" vertex="1">
          <mxGeometry x="200" y="1160" width="80" height="80" as="geometry" />
        </mxCell>
        <mxCell id="E6fifJwDgSD8AQbSED46-66" style="rounded=0;orthogonalLoop=1;jettySize=auto;html=1;entryX=-0.006;entryY=0.589;entryDx=0;entryDy=0;entryPerimeter=0;endArrow=none;endFill=0;" parent="WIyWlLk6GJQsqaUBKTNV-1" source="E6fifJwDgSD8AQbSED46-59" target="E6fifJwDgSD8AQbSED46-64" edge="1">
          <mxGeometry relative="1" as="geometry" />
        </mxCell>
        <mxCell id="E6fifJwDgSD8AQbSED46-71" style="rounded=0;orthogonalLoop=1;jettySize=auto;html=1;" parent="WIyWlLk6GJQsqaUBKTNV-1" source="E6fifJwDgSD8AQbSED46-68" target="E6fifJwDgSD8AQbSED46-70" edge="1">
          <mxGeometry relative="1" as="geometry" />
        </mxCell>
        <mxCell id="E6fifJwDgSD8AQbSED46-68" value="订单控制器" style="ellipse;shape=umlControl;whiteSpace=wrap;html=1;fillColor=#ffe6cc;strokeColor=#d79b00;" parent="WIyWlLk6GJQsqaUBKTNV-1" vertex="1">
          <mxGeometry x="-30" y="1290" width="70" height="80" as="geometry" />
        </mxCell>
        <mxCell id="E6fifJwDgSD8AQbSED46-69" style="rounded=0;orthogonalLoop=1;jettySize=auto;html=1;entryX=-0.006;entryY=0.623;entryDx=0;entryDy=0;entryPerimeter=0;endArrow=none;endFill=0;" parent="WIyWlLk6GJQsqaUBKTNV-1" source="E6fifJwDgSD8AQbSED46-59" target="E6fifJwDgSD8AQbSED46-68" edge="1">
          <mxGeometry relative="1" as="geometry" />
        </mxCell>
        <mxCell id="E6fifJwDgSD8AQbSED46-70" value="订单" style="ellipse;shape=umlEntity;whiteSpace=wrap;html=1;fillColor=#d5e8d4;strokeColor=#82b366;" parent="WIyWlLk6GJQsqaUBKTNV-1" vertex="1">
          <mxGeometry x="200" y="1300" width="80" height="80" as="geometry" />
        </mxCell>
        <mxCell id="E6fifJwDgSD8AQbSED46-72" value="订单模块界面" style="shape=umlBoundary;whiteSpace=wrap;html=1;fillColor=#dae8fc;strokeColor=#6c8ebf;" parent="WIyWlLk6GJQsqaUBKTNV-1" vertex="1">
          <mxGeometry x="-280" y="1610" width="100" height="80" as="geometry" />
        </mxCell>
        <mxCell id="E6fifJwDgSD8AQbSED46-73" value="订单" style="ellipse;shape=umlEntity;whiteSpace=wrap;html=1;fillColor=#d5e8d4;strokeColor=#82b366;" parent="WIyWlLk6GJQsqaUBKTNV-1" vertex="1">
          <mxGeometry x="140" y="1610" width="80" height="80" as="geometry" />
        </mxCell>
        <mxCell id="E6fifJwDgSD8AQbSED46-74" style="edgeStyle=orthogonalEdgeStyle;rounded=0;orthogonalLoop=1;jettySize=auto;html=1;" parent="WIyWlLk6GJQsqaUBKTNV-1" source="E6fifJwDgSD8AQbSED46-75" target="E6fifJwDgSD8AQbSED46-73" edge="1">
          <mxGeometry relative="1" as="geometry" />
        </mxCell>
        <mxCell id="E6fifJwDgSD8AQbSED46-75" value="订单控制器" style="ellipse;shape=umlControl;whiteSpace=wrap;html=1;fillColor=#ffe6cc;strokeColor=#d79b00;" parent="WIyWlLk6GJQsqaUBKTNV-1" vertex="1">
          <mxGeometry x="-30" y="1610" width="70" height="80" as="geometry" />
        </mxCell>
        <mxCell id="E6fifJwDgSD8AQbSED46-76" style="edgeStyle=orthogonalEdgeStyle;rounded=0;orthogonalLoop=1;jettySize=auto;html=1;entryX=-0.007;entryY=0.521;entryDx=0;entryDy=0;entryPerimeter=0;endArrow=none;endFill=0;" parent="WIyWlLk6GJQsqaUBKTNV-1" source="E6fifJwDgSD8AQbSED46-72" target="E6fifJwDgSD8AQbSED46-75" edge="1">
          <mxGeometry relative="1" as="geometry" />
        </mxCell>
        <mxCell id="E6fifJwDgSD8AQbSED46-77" value="交流模块界面" style="shape=umlBoundary;whiteSpace=wrap;html=1;fillColor=#dae8fc;strokeColor=#6c8ebf;" parent="WIyWlLk6GJQsqaUBKTNV-1" vertex="1">
          <mxGeometry x="-290" y="1920" width="100" height="80" as="geometry" />
        </mxCell>
        <mxCell id="E6fifJwDgSD8AQbSED46-78" value="交流消息" style="ellipse;shape=umlEntity;whiteSpace=wrap;html=1;fillColor=#d5e8d4;strokeColor=#82b366;" parent="WIyWlLk6GJQsqaUBKTNV-1" vertex="1">
          <mxGeometry x="180" y="1870" width="80" height="80" as="geometry" />
        </mxCell>
        <mxCell id="E6fifJwDgSD8AQbSED46-79" style="rounded=0;orthogonalLoop=1;jettySize=auto;html=1;" parent="WIyWlLk6GJQsqaUBKTNV-1" source="E6fifJwDgSD8AQbSED46-80" target="E6fifJwDgSD8AQbSED46-78" edge="1">
          <mxGeometry relative="1" as="geometry" />
        </mxCell>
        <mxCell id="E6fifJwDgSD8AQbSED46-80" value="交流控制器" style="ellipse;shape=umlControl;whiteSpace=wrap;html=1;fillColor=#ffe6cc;strokeColor=#d79b00;" parent="WIyWlLk6GJQsqaUBKTNV-1" vertex="1">
          <mxGeometry x="-40" y="1830" width="70" height="80" as="geometry" />
        </mxCell>
        <mxCell id="E6fifJwDgSD8AQbSED46-81" style="rounded=0;orthogonalLoop=1;jettySize=auto;html=1;entryX=-0.007;entryY=0.521;entryDx=0;entryDy=0;entryPerimeter=0;endArrow=none;endFill=0;" parent="WIyWlLk6GJQsqaUBKTNV-1" source="E6fifJwDgSD8AQbSED46-77" target="E6fifJwDgSD8AQbSED46-80" edge="1">
          <mxGeometry relative="1" as="geometry" />
        </mxCell>
        <mxCell id="E6fifJwDgSD8AQbSED46-83" value="用户信息" style="ellipse;shape=umlEntity;whiteSpace=wrap;html=1;fillColor=#d5e8d4;strokeColor=#82b366;" parent="WIyWlLk6GJQsqaUBKTNV-1" vertex="1">
          <mxGeometry x="194" y="2010" width="80" height="80" as="geometry" />
        </mxCell>
        <mxCell id="E6fifJwDgSD8AQbSED46-88" style="edgeStyle=orthogonalEdgeStyle;rounded=0;orthogonalLoop=1;jettySize=auto;html=1;" parent="WIyWlLk6GJQsqaUBKTNV-1" source="E6fifJwDgSD8AQbSED46-84" target="E6fifJwDgSD8AQbSED46-83" edge="1">
          <mxGeometry relative="1" as="geometry" />
        </mxCell>
        <mxCell id="E6fifJwDgSD8AQbSED46-84" value="用户控制器" style="ellipse;shape=umlControl;whiteSpace=wrap;html=1;fillColor=#ffe6cc;strokeColor=#d79b00;" parent="WIyWlLk6GJQsqaUBKTNV-1" vertex="1">
          <mxGeometry x="-40" y="2010" width="70" height="80" as="geometry" />
        </mxCell>
        <mxCell id="E6fifJwDgSD8AQbSED46-85" style="rounded=0;orthogonalLoop=1;jettySize=auto;html=1;entryX=0.006;entryY=0.667;entryDx=0;entryDy=0;entryPerimeter=0;endArrow=none;endFill=0;" parent="WIyWlLk6GJQsqaUBKTNV-1" source="E6fifJwDgSD8AQbSED46-77" target="E6fifJwDgSD8AQbSED46-84" edge="1">
          <mxGeometry relative="1" as="geometry" />
        </mxCell>
        <mxCell id="E6fifJwDgSD8AQbSED46-89" value="用户管理界面" style="shape=umlBoundary;whiteSpace=wrap;html=1;fillColor=#dae8fc;strokeColor=#6c8ebf;" parent="WIyWlLk6GJQsqaUBKTNV-1" vertex="1">
          <mxGeometry x="-255" y="2460" width="100" height="80" as="geometry" />
        </mxCell>
        <mxCell id="E6fifJwDgSD8AQbSED46-90" value="用户" style="ellipse;shape=umlEntity;whiteSpace=wrap;html=1;fillColor=#d5e8d4;strokeColor=#82b366;" parent="WIyWlLk6GJQsqaUBKTNV-1" vertex="1">
          <mxGeometry x="165" y="2460" width="80" height="80" as="geometry" />
        </mxCell>
        <mxCell id="E6fifJwDgSD8AQbSED46-91" style="edgeStyle=orthogonalEdgeStyle;rounded=0;orthogonalLoop=1;jettySize=auto;html=1;" parent="WIyWlLk6GJQsqaUBKTNV-1" source="E6fifJwDgSD8AQbSED46-92" target="E6fifJwDgSD8AQbSED46-90" edge="1">
          <mxGeometry relative="1" as="geometry" />
        </mxCell>
        <mxCell id="E6fifJwDgSD8AQbSED46-92" value="用户控制器" style="ellipse;shape=umlControl;whiteSpace=wrap;html=1;fillColor=#ffe6cc;strokeColor=#d79b00;" parent="WIyWlLk6GJQsqaUBKTNV-1" vertex="1">
          <mxGeometry x="-5" y="2460" width="70" height="80" as="geometry" />
        </mxCell>
        <mxCell id="E6fifJwDgSD8AQbSED46-93" style="edgeStyle=orthogonalEdgeStyle;rounded=0;orthogonalLoop=1;jettySize=auto;html=1;entryX=-0.007;entryY=0.521;entryDx=0;entryDy=0;entryPerimeter=0;endArrow=none;endFill=0;" parent="WIyWlLk6GJQsqaUBKTNV-1" source="E6fifJwDgSD8AQbSED46-89" target="E6fifJwDgSD8AQbSED46-92" edge="1">
          <mxGeometry relative="1" as="geometry" />
        </mxCell>
        <mxCell id="E6fifJwDgSD8AQbSED46-94" value="资源管理界面" style="shape=umlBoundary;whiteSpace=wrap;html=1;fillColor=#dae8fc;strokeColor=#6c8ebf;" parent="WIyWlLk6GJQsqaUBKTNV-1" vertex="1">
          <mxGeometry x="-255" y="2650" width="100" height="80" as="geometry" />
        </mxCell>
        <mxCell id="E6fifJwDgSD8AQbSED46-95" value="资源" style="ellipse;shape=umlEntity;whiteSpace=wrap;html=1;fillColor=#d5e8d4;strokeColor=#82b366;" parent="WIyWlLk6GJQsqaUBKTNV-1" vertex="1">
          <mxGeometry x="165" y="2650" width="80" height="80" as="geometry" />
        </mxCell>
        <mxCell id="E6fifJwDgSD8AQbSED46-96" style="edgeStyle=orthogonalEdgeStyle;rounded=0;orthogonalLoop=1;jettySize=auto;html=1;" parent="WIyWlLk6GJQsqaUBKTNV-1" source="E6fifJwDgSD8AQbSED46-97" target="E6fifJwDgSD8AQbSED46-95" edge="1">
          <mxGeometry relative="1" as="geometry" />
        </mxCell>
        <mxCell id="E6fifJwDgSD8AQbSED46-97" value="资源管理控制器" style="ellipse;shape=umlControl;whiteSpace=wrap;html=1;fillColor=#ffe6cc;strokeColor=#d79b00;" parent="WIyWlLk6GJQsqaUBKTNV-1" vertex="1">
          <mxGeometry x="-5" y="2650" width="70" height="80" as="geometry" />
        </mxCell>
        <mxCell id="E6fifJwDgSD8AQbSED46-98" style="edgeStyle=orthogonalEdgeStyle;rounded=0;orthogonalLoop=1;jettySize=auto;html=1;entryX=-0.007;entryY=0.521;entryDx=0;entryDy=0;entryPerimeter=0;endArrow=none;endFill=0;" parent="WIyWlLk6GJQsqaUBKTNV-1" source="E6fifJwDgSD8AQbSED46-94" target="E6fifJwDgSD8AQbSED46-97" edge="1">
          <mxGeometry relative="1" as="geometry" />
        </mxCell>
        <mxCell id="E6fifJwDgSD8AQbSED46-99" value="版本管理界面" style="shape=umlBoundary;whiteSpace=wrap;html=1;fillColor=#dae8fc;strokeColor=#6c8ebf;" parent="WIyWlLk6GJQsqaUBKTNV-1" vertex="1">
          <mxGeometry x="-245" y="2930" width="100" height="80" as="geometry" />
        </mxCell>
        <mxCell id="E6fifJwDgSD8AQbSED46-100" value="版本记录" style="ellipse;shape=umlEntity;whiteSpace=wrap;html=1;fillColor=#d5e8d4;strokeColor=#82b366;" parent="WIyWlLk6GJQsqaUBKTNV-1" vertex="1">
          <mxGeometry x="175" y="2930" width="80" height="80" as="geometry" />
        </mxCell>
        <mxCell id="E6fifJwDgSD8AQbSED46-101" style="edgeStyle=orthogonalEdgeStyle;rounded=0;orthogonalLoop=1;jettySize=auto;html=1;" parent="WIyWlLk6GJQsqaUBKTNV-1" source="E6fifJwDgSD8AQbSED46-102" target="E6fifJwDgSD8AQbSED46-100" edge="1">
          <mxGeometry relative="1" as="geometry" />
        </mxCell>
        <mxCell id="E6fifJwDgSD8AQbSED46-102" value="版本控制器" style="ellipse;shape=umlControl;whiteSpace=wrap;html=1;fillColor=#ffe6cc;strokeColor=#d79b00;" parent="WIyWlLk6GJQsqaUBKTNV-1" vertex="1">
          <mxGeometry x="5" y="2930" width="70" height="80" as="geometry" />
        </mxCell>
        <mxCell id="E6fifJwDgSD8AQbSED46-103" style="edgeStyle=orthogonalEdgeStyle;rounded=0;orthogonalLoop=1;jettySize=auto;html=1;entryX=-0.007;entryY=0.521;entryDx=0;entryDy=0;entryPerimeter=0;endArrow=none;endFill=0;" parent="WIyWlLk6GJQsqaUBKTNV-1" source="E6fifJwDgSD8AQbSED46-99" target="E6fifJwDgSD8AQbSED46-102" edge="1">
          <mxGeometry relative="1" as="geometry" />
        </mxCell>
        <mxCell id="E6fifJwDgSD8AQbSED46-104" value="购物车界面" style="shape=umlBoundary;whiteSpace=wrap;html=1;fillColor=#dae8fc;strokeColor=#6c8ebf;" parent="WIyWlLk6GJQsqaUBKTNV-1" vertex="1">
          <mxGeometry x="-270" y="3160" width="100" height="80" as="geometry" />
        </mxCell>
        <mxCell id="E6fifJwDgSD8AQbSED46-105" value="购物车" style="ellipse;shape=umlEntity;whiteSpace=wrap;html=1;fillColor=#d5e8d4;strokeColor=#82b366;" parent="WIyWlLk6GJQsqaUBKTNV-1" vertex="1">
          <mxGeometry x="194" y="3110" width="80" height="80" as="geometry" />
        </mxCell>
        <mxCell id="E6fifJwDgSD8AQbSED46-106" style="edgeStyle=orthogonalEdgeStyle;rounded=0;orthogonalLoop=1;jettySize=auto;html=1;" parent="WIyWlLk6GJQsqaUBKTNV-1" source="E6fifJwDgSD8AQbSED46-107" target="E6fifJwDgSD8AQbSED46-105" edge="1">
          <mxGeometry relative="1" as="geometry" />
        </mxCell>
        <mxCell id="E6fifJwDgSD8AQbSED46-107" value="购物车控制器" style="ellipse;shape=umlControl;whiteSpace=wrap;html=1;fillColor=#ffe6cc;strokeColor=#d79b00;" parent="WIyWlLk6GJQsqaUBKTNV-1" vertex="1">
          <mxGeometry y="3110" width="70" height="80" as="geometry" />
        </mxCell>
        <mxCell id="E6fifJwDgSD8AQbSED46-108" style="rounded=0;orthogonalLoop=1;jettySize=auto;html=1;entryX=-0.007;entryY=0.521;entryDx=0;entryDy=0;entryPerimeter=0;endArrow=none;endFill=0;" parent="WIyWlLk6GJQsqaUBKTNV-1" source="E6fifJwDgSD8AQbSED46-104" target="E6fifJwDgSD8AQbSED46-107" edge="1">
          <mxGeometry relative="1" as="geometry" />
        </mxCell>
        <mxCell id="E6fifJwDgSD8AQbSED46-113" style="edgeStyle=orthogonalEdgeStyle;rounded=0;orthogonalLoop=1;jettySize=auto;html=1;entryX=0;entryY=0.5;entryDx=0;entryDy=0;" parent="WIyWlLk6GJQsqaUBKTNV-1" source="E6fifJwDgSD8AQbSED46-109" target="E6fifJwDgSD8AQbSED46-111" edge="1">
          <mxGeometry relative="1" as="geometry" />
        </mxCell>
        <mxCell id="E6fifJwDgSD8AQbSED46-109" value="订单控制器" style="ellipse;shape=umlControl;whiteSpace=wrap;html=1;fillColor=#ffe6cc;strokeColor=#d79b00;" parent="WIyWlLk6GJQsqaUBKTNV-1" vertex="1">
          <mxGeometry x="-5" y="3230" width="70" height="80" as="geometry" />
        </mxCell>
        <mxCell id="E6fifJwDgSD8AQbSED46-111" value="订单" style="ellipse;shape=umlEntity;whiteSpace=wrap;html=1;fillColor=#d5e8d4;strokeColor=#82b366;" parent="WIyWlLk6GJQsqaUBKTNV-1" vertex="1">
          <mxGeometry x="180" y="3230" width="80" height="80" as="geometry" />
        </mxCell>
        <mxCell id="E6fifJwDgSD8AQbSED46-112" style="rounded=0;orthogonalLoop=1;jettySize=auto;html=1;entryX=-0.015;entryY=0.579;entryDx=0;entryDy=0;entryPerimeter=0;startArrow=none;startFill=0;endArrow=none;endFill=0;" parent="WIyWlLk6GJQsqaUBKTNV-1" source="E6fifJwDgSD8AQbSED46-104" target="E6fifJwDgSD8AQbSED46-109" edge="1">
          <mxGeometry relative="1" as="geometry" />
        </mxCell>
        <mxCell id="4cMFZLAC2HCp6WsKi7Tq-0" value="" style="ellipse;fillColor=strokeColor;html=1;" parent="WIyWlLk6GJQsqaUBKTNV-1" vertex="1">
          <mxGeometry x="-500" y="3520" width="30" height="30" as="geometry" />
        </mxCell>
        <mxCell id="4cMFZLAC2HCp6WsKi7Tq-1" value="" style="ellipse;html=1;shape=endState;fillColor=strokeColor;" parent="WIyWlLk6GJQsqaUBKTNV-1" vertex="1">
          <mxGeometry x="-135" y="3860" width="30" height="30" as="geometry" />
        </mxCell>
        <mxCell id="4cMFZLAC2HCp6WsKi7Tq-2" value="" style="endArrow=open;startArrow=none;endFill=0;startFill=0;endSize=8;html=1;verticalAlign=bottom;labelBackgroundColor=none;strokeWidth=1;rounded=0;exitX=1;exitY=0.5;exitDx=0;exitDy=0;entryX=0;entryY=0.5;entryDx=0;entryDy=0;" parent="WIyWlLk6GJQsqaUBKTNV-1" source="4cMFZLAC2HCp6WsKi7Tq-0" target="4cMFZLAC2HCp6WsKi7Tq-5" edge="1">
          <mxGeometry width="160" relative="1" as="geometry">
            <mxPoint x="-370" y="3580" as="sourcePoint" />
            <mxPoint x="-390" y="3535" as="targetPoint" />
          </mxGeometry>
        </mxCell>
        <mxCell id="4cMFZLAC2HCp6WsKi7Tq-4" value="输入账号密码" style="html=1;align=center;verticalAlign=top;rounded=1;absoluteArcSize=1;arcSize=10;dashed=0;whiteSpace=wrap;" parent="WIyWlLk6GJQsqaUBKTNV-1" vertex="1">
          <mxGeometry x="-190" y="3515" width="140" height="40" as="geometry" />
        </mxCell>
        <mxCell id="4cMFZLAC2HCp6WsKi7Tq-5" value="" style="rhombus;" parent="WIyWlLk6GJQsqaUBKTNV-1" vertex="1">
          <mxGeometry x="-370" y="3515" width="70" height="40" as="geometry" />
        </mxCell>
        <mxCell id="4cMFZLAC2HCp6WsKi7Tq-6" value="注册账号" style="html=1;align=center;verticalAlign=top;rounded=1;absoluteArcSize=1;arcSize=10;dashed=0;whiteSpace=wrap;" parent="WIyWlLk6GJQsqaUBKTNV-1" vertex="1">
          <mxGeometry x="-405" y="3650" width="140" height="40" as="geometry" />
        </mxCell>
        <mxCell id="4cMFZLAC2HCp6WsKi7Tq-7" value="登录账号" style="html=1;align=center;verticalAlign=top;rounded=1;absoluteArcSize=1;arcSize=10;dashed=0;whiteSpace=wrap;" parent="WIyWlLk6GJQsqaUBKTNV-1" vertex="1">
          <mxGeometry x="-190" y="3650" width="140" height="40" as="geometry" />
        </mxCell>
        <mxCell id="4cMFZLAC2HCp6WsKi7Tq-8" value="" style="endArrow=open;startArrow=none;endFill=0;startFill=0;endSize=8;html=1;verticalAlign=bottom;labelBackgroundColor=none;strokeWidth=1;rounded=0;exitX=0.5;exitY=1;exitDx=0;exitDy=0;entryX=0.5;entryY=0;entryDx=0;entryDy=0;" parent="WIyWlLk6GJQsqaUBKTNV-1" source="4cMFZLAC2HCp6WsKi7Tq-5" target="4cMFZLAC2HCp6WsKi7Tq-6" edge="1">
          <mxGeometry width="160" relative="1" as="geometry">
            <mxPoint x="-370" y="3580" as="sourcePoint" />
            <mxPoint x="-210" y="3580" as="targetPoint" />
          </mxGeometry>
        </mxCell>
        <mxCell id="4cMFZLAC2HCp6WsKi7Tq-9" value="" style="endArrow=open;startArrow=none;endFill=0;startFill=0;endSize=8;html=1;verticalAlign=bottom;labelBackgroundColor=none;strokeWidth=1;rounded=0;exitX=0.5;exitY=1;exitDx=0;exitDy=0;" parent="WIyWlLk6GJQsqaUBKTNV-1" source="4cMFZLAC2HCp6WsKi7Tq-7" target="4cMFZLAC2HCp6WsKi7Tq-17" edge="1">
          <mxGeometry width="160" relative="1" as="geometry">
            <mxPoint x="-370" y="3580" as="sourcePoint" />
            <mxPoint x="-120" y="3730" as="targetPoint" />
          </mxGeometry>
        </mxCell>
        <mxCell id="4cMFZLAC2HCp6WsKi7Tq-10" value="" style="endArrow=open;startArrow=none;endFill=0;startFill=0;endSize=8;html=1;verticalAlign=bottom;labelBackgroundColor=none;strokeWidth=1;rounded=0;exitX=1;exitY=0.5;exitDx=0;exitDy=0;entryX=0;entryY=0.5;entryDx=0;entryDy=0;" parent="WIyWlLk6GJQsqaUBKTNV-1" source="4cMFZLAC2HCp6WsKi7Tq-6" target="4cMFZLAC2HCp6WsKi7Tq-7" edge="1">
          <mxGeometry width="160" relative="1" as="geometry">
            <mxPoint x="-370" y="3580" as="sourcePoint" />
            <mxPoint x="-210" y="3580" as="targetPoint" />
          </mxGeometry>
        </mxCell>
        <mxCell id="4cMFZLAC2HCp6WsKi7Tq-11" value="" style="endArrow=open;startArrow=none;endFill=0;startFill=0;endSize=8;html=1;verticalAlign=bottom;labelBackgroundColor=none;strokeWidth=1;rounded=0;exitX=0.5;exitY=1;exitDx=0;exitDy=0;entryX=0.5;entryY=0;entryDx=0;entryDy=0;" parent="WIyWlLk6GJQsqaUBKTNV-1" source="4cMFZLAC2HCp6WsKi7Tq-4" target="4cMFZLAC2HCp6WsKi7Tq-7" edge="1">
          <mxGeometry width="160" relative="1" as="geometry">
            <mxPoint x="-370" y="3580" as="sourcePoint" />
            <mxPoint x="-210" y="3580" as="targetPoint" />
          </mxGeometry>
        </mxCell>
        <mxCell id="4cMFZLAC2HCp6WsKi7Tq-12" value="" style="endArrow=open;startArrow=none;endFill=0;startFill=0;endSize=8;html=1;verticalAlign=bottom;labelBackgroundColor=none;strokeWidth=1;rounded=0;exitX=1;exitY=0.5;exitDx=0;exitDy=0;entryX=0;entryY=0.5;entryDx=0;entryDy=0;" parent="WIyWlLk6GJQsqaUBKTNV-1" source="4cMFZLAC2HCp6WsKi7Tq-5" target="4cMFZLAC2HCp6WsKi7Tq-4" edge="1">
          <mxGeometry width="160" relative="1" as="geometry">
            <mxPoint x="-370" y="3580" as="sourcePoint" />
            <mxPoint x="-210" y="3580" as="targetPoint" />
          </mxGeometry>
        </mxCell>
        <mxCell id="4cMFZLAC2HCp6WsKi7Tq-13" value="是否注册" style="text;html=1;align=center;verticalAlign=middle;resizable=0;points=[];autosize=1;strokeColor=none;fillColor=none;" parent="WIyWlLk6GJQsqaUBKTNV-1" vertex="1">
          <mxGeometry x="-370" y="3485" width="70" height="30" as="geometry" />
        </mxCell>
        <mxCell id="4cMFZLAC2HCp6WsKi7Tq-14" value="是" style="text;html=1;align=center;verticalAlign=middle;resizable=0;points=[];autosize=1;strokeColor=none;fillColor=none;" parent="WIyWlLk6GJQsqaUBKTNV-1" vertex="1">
          <mxGeometry x="-270" y="3508" width="40" height="30" as="geometry" />
        </mxCell>
        <mxCell id="4cMFZLAC2HCp6WsKi7Tq-15" value="否" style="text;html=1;align=center;verticalAlign=middle;resizable=0;points=[];autosize=1;strokeColor=none;fillColor=none;" parent="WIyWlLk6GJQsqaUBKTNV-1" vertex="1">
          <mxGeometry x="-370" y="3580" width="40" height="30" as="geometry" />
        </mxCell>
        <mxCell id="4cMFZLAC2HCp6WsKi7Tq-17" value="操作" style="html=1;align=center;verticalAlign=top;rounded=1;absoluteArcSize=1;arcSize=10;dashed=0;whiteSpace=wrap;" parent="WIyWlLk6GJQsqaUBKTNV-1" vertex="1">
          <mxGeometry x="-190" y="3750" width="140" height="40" as="geometry" />
        </mxCell>
        <mxCell id="4cMFZLAC2HCp6WsKi7Tq-18" value="" style="endArrow=open;startArrow=none;endFill=0;startFill=0;endSize=8;html=1;verticalAlign=bottom;labelBackgroundColor=none;strokeWidth=1;rounded=0;exitX=0.5;exitY=1;exitDx=0;exitDy=0;entryX=0.5;entryY=0;entryDx=0;entryDy=0;" parent="WIyWlLk6GJQsqaUBKTNV-1" source="4cMFZLAC2HCp6WsKi7Tq-17" target="4cMFZLAC2HCp6WsKi7Tq-1" edge="1">
          <mxGeometry width="160" relative="1" as="geometry">
            <mxPoint x="-370" y="3680" as="sourcePoint" />
            <mxPoint x="-210" y="3680" as="targetPoint" />
          </mxGeometry>
        </mxCell>
        <mxCell id="4cMFZLAC2HCp6WsKi7Tq-19" value="" style="ellipse;fillColor=strokeColor;html=1;" parent="WIyWlLk6GJQsqaUBKTNV-1" vertex="1">
          <mxGeometry x="-660" y="3951.8799999999997" width="30" height="30" as="geometry" />
        </mxCell>
        <mxCell id="4cMFZLAC2HCp6WsKi7Tq-23" value="" style="ellipse;html=1;shape=endState;fillColor=strokeColor;" parent="WIyWlLk6GJQsqaUBKTNV-1" vertex="1">
          <mxGeometry x="-225" y="4450" width="30" height="30" as="geometry" />
        </mxCell>
        <mxCell id="4cMFZLAC2HCp6WsKi7Tq-25" value="发布资源" style="html=1;align=center;verticalAlign=top;rounded=1;absoluteArcSize=1;arcSize=10;dashed=0;whiteSpace=wrap;" parent="WIyWlLk6GJQsqaUBKTNV-1" vertex="1">
          <mxGeometry x="-270" y="4370" width="120" height="40" as="geometry" />
        </mxCell>
        <mxCell id="4cMFZLAC2HCp6WsKi7Tq-26" value="修改正确" style="html=1;align=center;verticalAlign=top;rounded=1;absoluteArcSize=1;arcSize=10;dashed=0;whiteSpace=wrap;" parent="WIyWlLk6GJQsqaUBKTNV-1" vertex="1">
          <mxGeometry x="-120" y="4076.5" width="100" height="40" as="geometry" />
        </mxCell>
        <mxCell id="4cMFZLAC2HCp6WsKi7Tq-78" style="edgeStyle=orthogonalEdgeStyle;rounded=0;orthogonalLoop=1;jettySize=auto;html=1;exitX=0.5;exitY=1;exitDx=0;exitDy=0;entryX=0.5;entryY=0;entryDx=0;entryDy=0;" parent="WIyWlLk6GJQsqaUBKTNV-1" source="4cMFZLAC2HCp6WsKi7Tq-27" target="4cMFZLAC2HCp6WsKi7Tq-32" edge="1">
          <mxGeometry relative="1" as="geometry" />
        </mxCell>
        <mxCell id="4cMFZLAC2HCp6WsKi7Tq-27" value="查看我的资源" style="html=1;align=center;verticalAlign=top;rounded=1;absoluteArcSize=1;arcSize=10;dashed=0;whiteSpace=wrap;" parent="WIyWlLk6GJQsqaUBKTNV-1" vertex="1">
          <mxGeometry x="-300" y="3950" width="140" height="40" as="geometry" />
        </mxCell>
        <mxCell id="4cMFZLAC2HCp6WsKi7Tq-29" value="登录" style="html=1;align=center;verticalAlign=top;rounded=1;absoluteArcSize=1;arcSize=10;dashed=0;whiteSpace=wrap;" parent="WIyWlLk6GJQsqaUBKTNV-1" vertex="1">
          <mxGeometry x="-540" y="3949.9999999999995" width="80" height="33.75" as="geometry" />
        </mxCell>
        <mxCell id="4cMFZLAC2HCp6WsKi7Tq-63" style="edgeStyle=orthogonalEdgeStyle;rounded=0;orthogonalLoop=1;jettySize=auto;html=1;exitX=0.5;exitY=1;exitDx=0;exitDy=0;entryX=0.5;entryY=0;entryDx=0;entryDy=0;" parent="WIyWlLk6GJQsqaUBKTNV-1" source="4cMFZLAC2HCp6WsKi7Tq-32" target="4cMFZLAC2HCp6WsKi7Tq-62" edge="1">
          <mxGeometry relative="1" as="geometry" />
        </mxCell>
        <mxCell id="4cMFZLAC2HCp6WsKi7Tq-32" value="" style="rhombus;" parent="WIyWlLk6GJQsqaUBKTNV-1" vertex="1">
          <mxGeometry x="-270" y="4075" width="60" height="40" as="geometry" />
        </mxCell>
        <mxCell id="4cMFZLAC2HCp6WsKi7Tq-35" value="" style="endArrow=open;startArrow=none;endFill=0;startFill=0;endSize=8;html=1;verticalAlign=bottom;labelBackgroundColor=none;strokeWidth=1;rounded=0;entryX=0.5;entryY=0;entryDx=0;entryDy=0;exitX=0.5;exitY=1;exitDx=0;exitDy=0;" parent="WIyWlLk6GJQsqaUBKTNV-1" source="4cMFZLAC2HCp6WsKi7Tq-25" target="4cMFZLAC2HCp6WsKi7Tq-23" edge="1">
          <mxGeometry width="160" relative="1" as="geometry">
            <mxPoint x="-210" y="4570" as="sourcePoint" />
            <mxPoint x="-180" y="4310" as="targetPoint" />
          </mxGeometry>
        </mxCell>
        <mxCell id="4cMFZLAC2HCp6WsKi7Tq-37" value="" style="endArrow=open;startArrow=none;endFill=0;startFill=0;endSize=8;html=1;verticalAlign=bottom;labelBackgroundColor=none;strokeWidth=1;rounded=0;exitX=1;exitY=0.5;exitDx=0;exitDy=0;entryX=0;entryY=0.5;entryDx=0;entryDy=0;" parent="WIyWlLk6GJQsqaUBKTNV-1" source="4cMFZLAC2HCp6WsKi7Tq-32" target="4cMFZLAC2HCp6WsKi7Tq-26" edge="1">
          <mxGeometry width="160" relative="1" as="geometry">
            <mxPoint x="-370" y="4080" as="sourcePoint" />
            <mxPoint x="-210" y="4080" as="targetPoint" />
          </mxGeometry>
        </mxCell>
        <mxCell id="4cMFZLAC2HCp6WsKi7Tq-42" value="" style="endArrow=open;startArrow=none;endFill=0;startFill=0;endSize=8;html=1;verticalAlign=bottom;labelBackgroundColor=none;strokeWidth=1;rounded=0;exitX=1;exitY=0.5;exitDx=0;exitDy=0;entryX=0;entryY=0.5;entryDx=0;entryDy=0;" parent="WIyWlLk6GJQsqaUBKTNV-1" source="4cMFZLAC2HCp6WsKi7Tq-29" target="4cMFZLAC2HCp6WsKi7Tq-27" edge="1">
          <mxGeometry width="160" relative="1" as="geometry">
            <mxPoint x="-370" y="4080" as="sourcePoint" />
            <mxPoint x="-310" y="4015" as="targetPoint" />
          </mxGeometry>
        </mxCell>
        <mxCell id="4cMFZLAC2HCp6WsKi7Tq-43" value="" style="endArrow=open;startArrow=none;endFill=0;startFill=0;endSize=8;html=1;verticalAlign=bottom;labelBackgroundColor=none;strokeWidth=1;rounded=0;exitX=1;exitY=0.5;exitDx=0;exitDy=0;entryX=0;entryY=0.5;entryDx=0;entryDy=0;" parent="WIyWlLk6GJQsqaUBKTNV-1" source="4cMFZLAC2HCp6WsKi7Tq-19" target="4cMFZLAC2HCp6WsKi7Tq-29" edge="1">
          <mxGeometry width="160" relative="1" as="geometry">
            <mxPoint x="-370" y="4080" as="sourcePoint" />
            <mxPoint x="-210" y="4080" as="targetPoint" />
          </mxGeometry>
        </mxCell>
        <mxCell id="4cMFZLAC2HCp6WsKi7Tq-50" value="资源信息是否正确" style="text;html=1;align=center;verticalAlign=middle;resizable=0;points=[];autosize=1;strokeColor=none;fillColor=none;" parent="WIyWlLk6GJQsqaUBKTNV-1" vertex="1">
          <mxGeometry x="-390" y="4076.5" width="120" height="30" as="geometry" />
        </mxCell>
        <mxCell id="4cMFZLAC2HCp6WsKi7Tq-51" value="是" style="text;html=1;align=center;verticalAlign=middle;resizable=0;points=[];autosize=1;strokeColor=none;fillColor=none;" parent="WIyWlLk6GJQsqaUBKTNV-1" vertex="1">
          <mxGeometry x="-285" y="4140" width="40" height="30" as="geometry" />
        </mxCell>
        <mxCell id="4cMFZLAC2HCp6WsKi7Tq-52" value="否" style="text;html=1;align=center;verticalAlign=middle;resizable=0;points=[];autosize=1;strokeColor=none;fillColor=none;" parent="WIyWlLk6GJQsqaUBKTNV-1" vertex="1">
          <mxGeometry x="-210" y="4062" width="40" height="30" as="geometry" />
        </mxCell>
        <mxCell id="4cMFZLAC2HCp6WsKi7Tq-62" value="添加资源" style="html=1;align=center;verticalAlign=top;rounded=1;absoluteArcSize=1;arcSize=10;dashed=0;whiteSpace=wrap;" parent="WIyWlLk6GJQsqaUBKTNV-1" vertex="1">
          <mxGeometry x="-290" y="4190" width="100" height="40" as="geometry" />
        </mxCell>
        <mxCell id="4cMFZLAC2HCp6WsKi7Tq-69" value="变成待发布资源" style="text;html=1;align=center;verticalAlign=middle;resizable=0;points=[];autosize=1;strokeColor=none;fillColor=none;" parent="WIyWlLk6GJQsqaUBKTNV-1" vertex="1">
          <mxGeometry x="-145" y="4290" width="110" height="30" as="geometry" />
        </mxCell>
        <mxCell id="4cMFZLAC2HCp6WsKi7Tq-70" value="" style="html=1;rounded=0;endArrow=none;endFill=0;strokeWidth=5;" parent="WIyWlLk6GJQsqaUBKTNV-1" edge="1">
          <mxGeometry width="100" relative="1" as="geometry">
            <mxPoint x="-255" y="4310" as="sourcePoint" />
            <mxPoint x="-155" y="4310" as="targetPoint" />
          </mxGeometry>
        </mxCell>
        <mxCell id="4cMFZLAC2HCp6WsKi7Tq-73" value="" style="endArrow=classic;html=1;rounded=0;exitX=0.5;exitY=1;exitDx=0;exitDy=0;edgeStyle=orthogonalEdgeStyle;" parent="WIyWlLk6GJQsqaUBKTNV-1" source="4cMFZLAC2HCp6WsKi7Tq-26" edge="1">
          <mxGeometry width="50" height="50" relative="1" as="geometry">
            <mxPoint x="-70" y="4220" as="sourcePoint" />
            <mxPoint x="-200" y="4310" as="targetPoint" />
            <Array as="points">
              <mxPoint x="-70" y="4260" />
              <mxPoint x="-199" y="4260" />
            </Array>
          </mxGeometry>
        </mxCell>
        <mxCell id="4cMFZLAC2HCp6WsKi7Tq-74" value="" style="endArrow=classic;html=1;rounded=0;exitX=0.5;exitY=1;exitDx=0;exitDy=0;" parent="WIyWlLk6GJQsqaUBKTNV-1" source="4cMFZLAC2HCp6WsKi7Tq-62" edge="1">
          <mxGeometry width="50" height="50" relative="1" as="geometry">
            <mxPoint x="-570" y="4280" as="sourcePoint" />
            <mxPoint x="-240" y="4310" as="targetPoint" />
          </mxGeometry>
        </mxCell>
        <mxCell id="4cMFZLAC2HCp6WsKi7Tq-75" value="" style="endArrow=classic;html=1;rounded=0;entryX=0.5;entryY=0;entryDx=0;entryDy=0;" parent="WIyWlLk6GJQsqaUBKTNV-1" target="4cMFZLAC2HCp6WsKi7Tq-25" edge="1">
          <mxGeometry width="50" height="50" relative="1" as="geometry">
            <mxPoint x="-210" y="4310" as="sourcePoint" />
            <mxPoint x="-390" y="4270" as="targetPoint" />
          </mxGeometry>
        </mxCell>
        <mxCell id="4cMFZLAC2HCp6WsKi7Tq-76" value="删除资源" style="html=1;align=center;verticalAlign=top;rounded=1;absoluteArcSize=1;arcSize=10;dashed=0;whiteSpace=wrap;" parent="WIyWlLk6GJQsqaUBKTNV-1" vertex="1">
          <mxGeometry x="-450" y="4190" width="100" height="40" as="geometry" />
        </mxCell>
        <mxCell id="4cMFZLAC2HCp6WsKi7Tq-77" value="" style="endArrow=open;startArrow=none;endFill=0;startFill=0;endSize=8;html=1;verticalAlign=bottom;labelBackgroundColor=none;strokeWidth=1;rounded=0;entryX=0;entryY=0.5;entryDx=0;entryDy=0;edgeStyle=orthogonalEdgeStyle;" parent="WIyWlLk6GJQsqaUBKTNV-1" source="4cMFZLAC2HCp6WsKi7Tq-76" target="4cMFZLAC2HCp6WsKi7Tq-23" edge="1">
          <mxGeometry width="160" relative="1" as="geometry">
            <mxPoint x="-200" y="4420" as="sourcePoint" />
            <mxPoint x="-200" y="4460" as="targetPoint" />
            <Array as="points">
              <mxPoint x="-490" y="4210" />
              <mxPoint x="-490" y="4465" />
            </Array>
          </mxGeometry>
        </mxCell>
      </root>
    </mxGraphModel>
  </diagram>
</mxfile>
